HIERARCHY
ROOT Hips
{
	OFFSET 0.000000 0.000000 0.000000 
	CHANNELS 6 Xposition Yposition Zposition Yrotation Zrotation Xrotation 
	JOINT Lumbar
	{
		OFFSET 0.000000 0.000000 0.000000 
		CHANNELS 3 Zrotation Xrotation Yrotation
		JOINT Neck
		{
			OFFSET 0.000000 0.445665 0.000000 
			CHANNELS 3 Zrotation Xrotation Yrotation
			End Site
			{
				OFFSET 0.000000 0.227535 0.000000 
			}
		}
		JOINT RightShoulder
		{
			OFFSET 0.019635 0.377685 0.194865 
			CHANNELS 3 Zrotation Xrotation Yrotation
			JOINT RightElbow
			{
				OFFSET 0.000000 -0.243375 0.000000 
				CHANNELS 2 Zrotation Yrotation
				JOINT RightWrist
				{
					OFFSET 0.000000 -0.264825 0.000000 
					CHANNELS 2 Zrotation Xrotation
					End Site
					{
						OFFSET 0.006600 -0.176220 0.000990 
					}
				}
			}
		}
		JOINT LeftShoulder
		{
			OFFSET 0.019635 0.377685 -0.194865 
			CHANNELS 3 Zrotation Xrotation Yrotation
			JOINT LeftElbow
			{
				OFFSET 0.000000 -0.243375 0.000000 
				CHANNELS 2 Zrotation Yrotation
				JOINT LeftWrist
				{
					OFFSET 0.000000 -0.264825 0.000000 
					CHANNELS 2 Zrotation Xrotation
					End Site
					{
						OFFSET 0.006600 -0.176220 -0.000990 
					}
				}
			}
		}
	}
	JOINT RightHip
	{
		OFFSET 0.052140 -0.069960 0.075570 
		CHANNELS 3 Zrotation Xrotation Yrotation
		JOINT RightKnee
		{
			OFFSET 0.000000 -0.402270 0.000000 
			CHANNELS 1 Zrotation
			JOINT RightAnkle
			{
				OFFSET 0.000000 -0.404085 0.000000 
				CHANNELS 3 Zrotation Xrotation Yrotation
				End Site
				{
					OFFSET 0.204105 -0.089430 0.008415 
				}
			}
		}
	}
	JOINT LeftHip
	{
		OFFSET 0.052140 -0.069960 -0.075570 
		CHANNELS 3 Zrotation Xrotation Yrotation
		JOINT LeftKnee
		{
			OFFSET 0.000000 -0.402270 0.000000 
			CHANNELS 1 Zrotation
			JOINT LeftAnkle
			{
				OFFSET 0.000000 -0.404085 0.000000 
				CHANNELS 3 Zrotation Xrotation Yrotation
				End Site
				{
					OFFSET 0.204105 -0.089430 -0.008415 
				}
			}
		}
	}
}
MOTION
Frames: 25
Frame Time: 0.02
-0.14118 -0.00122 0.1716 -193.35045 -24.27917 -3.62078 38.45168 2.01179 -11.34216 -22.05375 0.08127 -0.83068 17.30495 -60.13817 16.06833 91.238 81.2306 14.87676 -3.60573 18.83618 58.35093 -18.0437 93.73894 -73.6284 18.43614 5.00278 37.34799 -6.84317 -8.69351 -20.35247 -12.32581 -4.61134 -3.41192 27.33453 1.84495 8.13177 -25.23958 -8.35858 5.02926 3.41777
-0.14116 -0.00117 0.17169 -193.28042 -24.14936 -3.61661 38.33732 2.016 -11.3549 -22.05397 0.11553 -0.83068 17.50095 -60.10582 16.2777 91.23133 81.24106 15.1913 -3.65937 18.95456 58.43334 -18.22233 93.72311 -73.3917 18.88133 5.59322 37.17969 -6.85049 -8.68924 -20.32357 -12.33831 -4.61662 -3.41375 27.17725 1.82479 8.0417 -25.19348 -8.36825 5.03275 3.42003
-0.1412 -0.00112 0.17175 -193.23761 -24.00915 -3.61448 38.19643 2.0265 -11.3449 -22.02699 0.15968 -0.83068 17.87022 -60.06986 16.59199 91.1551 81.23725 15.5911 -3.72722 19.21506 58.51105 -18.49875 93.69084 -73.06955 19.43732 6.33004 37.01244 -6.81689 -8.48432 -20.30242 -12.36914 -4.63613 -3.42367 26.99992 1.80942 7.97094 -25.13784 -8.3805 5.03791 3.42305
-0.14122 -0.00107 0.17182 -193.18534 -23.88172 -3.61126 38.07543 2.03412 -11.34386 -22.01365 0.19844 -0.83068 18.15812 -60.02923 16.85393 91.11201 81.24053 15.93914 -3.7843 19.40598 58.58909 -18.72385 93.66815 -72.80915 19.91068 6.95888 36.85412 -6.80246 -8.37423 -20.27926 -12.39041 -4.64864 -3.42966 26.84126 1.79221 7.89334 -25.08947 -8.39128 5.04222 3.42568
-0.14121 -0.00101 0.17192 -193.12012 -23.72018 -3.60837 37.9211 2.04156 -11.3499 -21.99442 0.24071 -0.83068 18.47176 -60.01452 17.14276 91.06425 81.24004 16.34353 -3.85971 19.62856 58.67613 -18.98513 93.63656 -72.4473 20.52159 7.76074 36.65496 -6.78705 -8.25574 -20.24888 -12.41588 -4.66292 -3.4364 26.64184 1.77286 7.8055 -25.02847 -8.40327 5.04689 3.42851
-0.14127 -0.00097 0.17194 -193.08827 -23.62653 -3.60544 37.8292 2.05099 -11.33557 -21.98135 0.27814 -0.83068 18.76671 -59.9454 17.39686 91.00941 81.24461 16.64946 -3.9005 19.8155 58.743 -19.1921 93.61952 -72.27192 20.87626 8.24136 36.54056 -6.76357 -8.10574 -20.23558 -12.43728 -4.67702 -3.44358 26.52176 1.7595 7.74451 -24.99133 -8.4134 5.05122 3.4311
-0.14149 -0.00098 0.17177 -193.14602 -23.73196 -3.60148 37.926 2.06417 -11.26725 -21.98985 0.29965 -0.83068 18.97528 -59.72513 17.54081 90.94696 81.26488 16.67337 -3.83907 19.86169 58.75239 -19.21813 93.64777 -72.71455 20.43956 7.75372 36.67226 -6.72571 -7.90061 -20.26904 -12.44367 -4.68779 -3.45058 26.63748 1.75989 7.75088 -25.02588 -8.4172 5.05409 3.43285
-0.14177 -0.00102 0.17152 -193.23578 -23.90456 -3.59752 38.08491 2.07922 -11.17962 -22.00591 0.316 -0.83068 19.15586 -59.45084 17.64353 90.88032 81.29117 16.59391 -3.74279 19.86697 58.7419 -19.18633 93.69101 -73.33672 19.7496 6.94545 36.88731 -6.68122 -7.67222 -20.31932 -12.44538 -4.69785 -3.4577 26.8318 1.76647 7.78402 -25.08422 -8.41914 5.05657 3.43433
-0.14203 -0.00104 0.1713 -193.30831 -24.04054 -3.59386 38.20901 2.09362 -11.10274 -22.01996 0.33487 -0.83068 19.34198 -59.20229 17.75636 90.81868 81.31603 16.55377 -3.66455 19.89427 58.74226 -19.18449 93.72674 -73.82131 19.21341 6.31398 37.05637 -6.64101 -7.46518 -20.36101 -12.44889 -4.70784 -3.46439 26.98253 1.77145 7.80687 -25.12943 -8.4223 5.05927 3.43589
-0.14228 -0.00107 0.17109 -193.39309 -24.20166 -3.58901 38.35972 2.10743 -11.01669 -22.02713 0.35341 -0.83068 19.56383 -58.94774 17.90802 90.74189 81.33498 16.54595 -3.57775 19.91204 58.73504 -19.17067 93.76497 -74.52864 18.52298 5.55822 37.2594 -6.59438 -7.20775 -20.40678 -12.4543 -4.71987 -3.47284 27.16553 1.7717 7.82351 -25.18398 -8.42397 5.06183 3.43763
-0.14256 -0.00109 0.17084 -193.45962 -24.32674 -3.58658 38.4704 2.12278 -10.9455 -22.05067 0.3712 -0.83068 19.70339 -58.69395 17.96931 90.6962 81.36768 16.44888 -3.50004 19.93834 58.73868 -19.16679 93.80159 -74.82892 18.08586 4.981 37.41181 -6.55965 -7.04986 -20.44818 -12.45451 -4.72743 -3.47768 27.30052 1.7829 7.85785 -25.22497 -8.42823 5.06458 3.43896
-0.14291 -0.00104 0.17047 -193.4678 -24.33374 -3.59109 38.45288 2.14215 -10.91974 -22.11865 0.38888 -0.83068 19.61173 -58.44645 17.77557 90.74072 81.43839 16.09747 -3.45829 19.99434 58.77951 -19.20348 93.83182 -73.84709 18.46561 4.99519 37.40084 -6.56314 -7.19494 -20.47141 -12.44039 -4.7215 -3.47154 27.28139 1.82556 7.94656 -25.2218 -8.44032 5.06795 3.43895
-0.14329 -0.00098 0.17004 -193.45639 -24.30248 -3.59794 38.39342 2.16291 -10.90978 -22.20277 0.40579 -0.83068 19.43927 -58.20321 17.49452 90.81642 81.52249 15.66507 -3.42646 20.06018 58.83158 -19.25185 93.85971 -72.46942 19.09929 5.19643 37.3365 -6.57839 -7.43815 -20.48998 -12.42128 -4.71123 -3.46191 27.21158 1.87857 8.05029 -25.20432 -8.45499 5.07151 3.43856
-0.14366 -0.00093 0.16964 -193.45389 -24.29034 -3.60353 38.35506 2.18282 -10.8929 -22.27899 0.42254 -0.83068 19.31004 -57.96402 17.26327 90.87603 81.59957 15.29166 -3.38841 20.12344 58.87697 -19.29504 93.88758 -71.3506 19.57828 5.29725 37.29886 -6.58592 -7.62229 -20.51196 -12.40513 -4.70375 -3.45453 27.16682 1.92492 8.13858 -25.19409 -8.46833 5.07503 3.43855
-0.14401 -0.00086 0.16925 -193.45252 -24.2737 -3.61001 38.31069 2.20373 -10.87421 -22.35797 0.4413 -0.83068 19.15268 -57.6979 16.98851 90.94354 81.68092 14.82304 -3.3561 20.17791 58.92816 -19.33574 93.9204 -69.912 20.20953 5.4489 37.25438 -6.60296 -7.86515 -20.52914 -12.38602 -4.69287 -3.44443 27.117 1.97941 8.26229 -25.18175 -8.48237 5.07844 3.43775
-0.14441 -0.00082 0.16881 -193.44369 -24.25587 -3.61513 38.26751 2.22284 -10.86335 -22.43478 0.45572 -0.83068 19.03479 -57.48929 16.78345 91.00209 81.75635 14.53232 -3.315 20.25288 58.97038 -19.38511 93.94232 -69.03388 20.5933 5.54722 37.20966 -6.60341 -8.01114 -20.55492 -12.37179 -4.68797 -3.43907 27.06376 2.01977 8.31781 -25.16983 -8.49545 5.08201 3.43841
-0.14491 -0.00082 0.16827 -193.41906 -24.24926 -3.61658 38.24283 2.23685 -10.87 -22.50302 0.45879 -0.83068 19.0479 -57.44146 16.79829 91.02812 81.81341 14.7743 -3.24432 20.38728 58.98349 -19.45577 93.93345 -69.88039 20.17889 5.41807 37.18357 -6.5522 -7.85042 -20.60596 -12.37365 -4.70148 -3.44837 27.0212 2.01453 8.16033 -25.16496 -8.50665 5.087 3.44406
-0.14545 -0.00084 0.16768 -193.38745 -24.24165 -3.61647 38.21974 2.24895 -10.88416 -22.56822 0.4575 -0.83068 19.10317 -57.45107 16.8853 91.0441 81.86395 15.19437 -3.16524 20.54097 58.98747 -19.53475 93.91387 -71.28955 19.51668 5.23556 37.15773 -6.48447 -7.59175 -20.66566 -12.38038 -4.72102 -3.46245 26.97535 1.99534 7.93707 -25.16051 -8.51658 5.09197 3.45106
-0.14597 -0.00085 0.16711 -193.35888 -24.23056 -3.61666 38.19213 2.26179 -10.89512 -22.63389 0.45791 -0.83068 19.13786 -57.43264 16.93557 91.06482 81.91643 15.51946 -3.09195 20.68286 58.99696 -19.61034 93.89994 -72.3867 19.00502 5.10325 37.12701 -6.42628 -7.38813 -20.72103 -12.38399 -4.73725 -3.47388 26.92526 1.98527 7.7581 -25.15412 -8.52618 5.09623 3.45685
-0.14649 -0.00086 0.16654 -193.33017 -24.23406 -3.61864 38.17839 2.27525 -10.90561 -22.704 0.45936 -0.83068 19.17594 -57.42244 16.99966 91.08593 81.97306 15.9018 -3.01031 20.83871 59.00159 -19.68559 93.88262 -73.70467 18.34619 4.87287 37.11373 -6.35992 -7.14371 -20.77786 -12.39122 -4.7557 -3.48717 26.8967 1.96422 7.52063 -25.15441 -8.5396 5.10344 3.46504
-0.14702 -0.00088 0.16596 -193.30039 -24.20836 -3.61653 38.13762 2.28694 -10.91878 -22.76389 0.45775 -0.83069 19.21776 -57.40877 17.05296 91.10339 82.02013 16.20721 -2.94437 20.96889 59.01341 -19.7622 93.86986 -74.70548 17.9264 4.82521 37.06595 -6.30649 -6.95938 -20.83382 -12.39217 -4.77104 -3.49779 26.8244 1.96213 7.387 -25.14136 -8.54487 5.10464 3.46867
-0.1476 -0.00092 0.16536 -193.26892 -24.09442 -3.60311 38.01393 2.29431 -10.93658 -22.79682 0.44766 -0.83069 19.26226 -57.37083 17.06181 91.11355 82.0352 16.2666 -2.91997 21.03281 59.05264 -19.85115 93.87208 -74.65907 18.2743 5.35254 36.91398 -6.29305 -6.96754 -20.88494 -12.37437 -4.77624 -3.49981 26.62166 2.01982 7.57517 -25.08892 -8.52655 5.08805 3.45857
-0.1482 -0.00096 0.16476 -193.23679 -23.95285 -3.58569 37.86473 2.29996 -10.95692 -22.81942 0.43485 -0.83069 19.30898 -57.32762 17.0572 91.12019 82.04195 16.24132 -2.91224 21.06863 59.09848 -19.93935 93.87932 -74.28175 18.86238 6.05539 36.72932 -6.2931 -7.03861 -20.935 -12.35016 -4.77814 -3.49902 26.37732 2.0963 7.86672 -25.02362 -8.50029 5.06563 3.44397
-0.1488 -0.001 0.16416 -193.20537 -23.82913 -3.57034 37.73249 2.30632 -10.97662 -22.84634 0.42401 -0.83069 19.3534 -57.28705 17.05725 91.12801 82.05744 16.24825 -2.89946 21.11092 59.13761 -20.02062 93.88436 -74.08075 19.30707 6.6376 36.56555 -6.28675 -7.07865 -20.98575 -12.32909 -4.78163 -3.49959 26.15894 2.16144 8.09817 -24.96586 -8.47859 5.04671 3.43199
-0.14939 -0.00104 0.16355 -193.17197 -23.68264 -3.55387 37.57733 2.3129 -10.99439 -22.87471 0.40992 -0.83069 19.40477 -57.24696 17.06593 91.13712 82.05264 16.28639 -2.8761 21.17974 59.19162 -20.13207 93.88857 -73.79197 19.88336 7.3849 36.37581 -6.28094 -7.12553 -21.0358 -12.30725 -4.78498 -3.49996 25.91013 2.23777 8.38183 -24.90079 -8.45294 5.02429 3.41768
